<svg width="38" height="38" viewBox="0 0 38 38" fill="none" xmlns="http://www.w3.org/2000/svg">
<g filter="url(#filter0_dd_6465_988)">
<g clip-path="url(#clip0_6465_988)">
<rect x="3" y="2" width="32" height="32" rx="8" fill="white"/>
<rect x="3" y="2" width="32" height="32" rx="8" fill="url(#paint0_linear_6465_988)"/>
<path fill-rule="evenodd" clip-rule="evenodd" d="M18.9998 4.03885C11.2892 4.03885 5.03861 10.2895 5.03861 18C5.03861 25.7106 11.2892 31.9612 18.9998 31.9612C26.7103 31.9612 32.9609 25.7106 32.9609 18C32.9609 10.2895 26.7103 4.03885 18.9998 4.03885ZM4.96094 18C4.96094 10.2466 11.2463 3.96118 18.9998 3.96118C26.7532 3.96118 33.0386 10.2466 33.0386 18C33.0386 25.7535 26.7532 32.0389 18.9998 32.0389C11.2463 32.0389 4.96094 25.7535 4.96094 18Z" fill="#D0D5DD"/>
<path fill-rule="evenodd" clip-rule="evenodd" d="M19 14.0779C16.8338 14.0779 15.0777 15.834 15.0777 18.0002C15.0777 20.1665 16.8338 21.9226 19 21.9226C21.1662 21.9226 22.9223 20.1665 22.9223 18.0002C22.9223 15.834 21.1662 14.0779 19 14.0779ZM15 18.0002C15 15.7911 16.7909 14.0002 19 14.0002C21.2091 14.0002 23 15.7911 23 18.0002C23 20.2094 21.2091 22.0002 19 22.0002C16.7909 22.0002 15 20.2094 15 18.0002Z" fill="#D0D5DD"/>
<path fill-rule="evenodd" clip-rule="evenodd" d="M19 15.3201C17.52 15.3201 16.3203 16.5198 16.3203 17.9997C16.3203 19.4796 17.52 20.6793 19 20.6793C20.4799 20.6793 21.6796 19.4796 21.6796 17.9997C21.6796 16.5198 20.4799 15.3201 19 15.3201ZM16.2427 17.9997C16.2427 16.4769 17.4772 15.2424 19 15.2424C20.5228 15.2424 21.7572 16.4769 21.7572 17.9997C21.7572 19.5225 20.5228 20.757 19 20.757C17.4772 20.757 16.2427 19.5225 16.2427 17.9997Z" fill="#D0D5DD"/>
<path d="M18.9609 2H19.0386V34H18.9609V2Z" fill="#D0D5DD"/>
<path d="M35 17.9609L35 18.0386L3 18.0386L3 17.9609L35 17.9609Z" fill="#D0D5DD"/>
<path d="M29.6021 2H29.6797V34H29.6021V2Z" fill="#D0D5DD"/>
<path d="M13.6406 2H13.7183V34H13.6406V2Z" fill="#D0D5DD"/>
<path d="M24.2817 2H24.3594V34H24.2817V2Z" fill="#D0D5DD"/>
<path d="M8.32031 2H8.39798V34H8.32031V2Z" fill="#D0D5DD"/>
<path d="M35 28.6016L35 28.6792L3 28.6792L3 28.6016L35 28.6016Z" fill="#D0D5DD"/>
<path d="M35 12.6406L35 12.7183L3 12.7183L3 12.6406L35 12.6406Z" fill="#D0D5DD"/>
<path d="M35 23.2812L35 23.3589L3 23.3589L3 23.2812L35 23.2812Z" fill="#D0D5DD"/>
<path d="M35 7.32031L35 7.39798L3 7.39798L3 7.32031L35 7.32031Z" fill="#D0D5DD"/>
<g filter="url(#filter1_dd_6465_988)">
<circle cx="19" cy="18" r="8" fill="url(#paint1_linear_6465_988)"/>
</g>
<path d="M22.6835 14.9209C22.4707 14.7079 22.2181 14.539 21.9399 14.4238C21.6618 14.3086 21.3637 14.2493 21.0627 14.2493C20.7617 14.2493 20.4636 14.3086 20.1855 14.4238C19.9074 14.539 19.6547 14.7079 19.4419 14.9209L19.0002 15.3625L18.5585 14.9209C18.1287 14.491 17.5456 14.2495 16.9377 14.2495C16.3298 14.2495 15.7468 14.491 15.3169 14.9209C14.887 15.3507 14.6455 15.9338 14.6455 16.5417C14.6455 17.1496 14.887 17.7327 15.3169 18.1625L15.7585 18.6042L19.0002 21.8459L22.2419 18.6042L22.6835 18.1625C22.8965 17.9497 23.0654 17.697 23.1806 17.4189C23.2958 17.1408 23.3551 16.8427 23.3551 16.5417C23.3551 16.2407 23.2958 15.9426 23.1806 15.6645C23.0654 15.3864 22.8965 15.1337 22.6835 14.9209V14.9209Z" stroke="#FCFCFD" stroke-linecap="round" stroke-linejoin="round"/>
<g filter="url(#filter2_b_6465_988)">
<path d="M3 22H35C35 25.7275 35 27.5913 34.391 29.0615C33.5791 31.0217 32.0217 32.5791 30.0615 33.391C28.5913 34 26.7275 34 23 34H15C11.2725 34 9.4087 34 7.93853 33.391C5.97831 32.5791 4.42092 31.0217 3.60896 29.0615C3 27.5913 3 25.7275 3 22Z" fill="white" fill-opacity="0.2"/>
</g>
</g>
<rect x="3.15" y="2.15" width="31.7" height="31.7" rx="7.85" stroke="#D0D5DD" stroke-width="0.3"/>
</g>
<defs>
<filter id="filter0_dd_6465_988" x="0" y="0" width="38" height="38" filterUnits="userSpaceOnUse" color-interpolation-filters="sRGB">
<feFlood flood-opacity="0" result="BackgroundImageFix"/>
<feColorMatrix in="SourceAlpha" type="matrix" values="0 0 0 0 0 0 0 0 0 0 0 0 0 0 0 0 0 0 127 0" result="hardAlpha"/>
<feOffset dy="1"/>
<feGaussianBlur stdDeviation="1"/>
<feColorMatrix type="matrix" values="0 0 0 0 0.0627451 0 0 0 0 0.0941176 0 0 0 0 0.156863 0 0 0 0.06 0"/>
<feBlend mode="normal" in2="BackgroundImageFix" result="effect1_dropShadow_6465_988"/>
<feColorMatrix in="SourceAlpha" type="matrix" values="0 0 0 0 0 0 0 0 0 0 0 0 0 0 0 0 0 0 127 0" result="hardAlpha"/>
<feOffset dy="1"/>
<feGaussianBlur stdDeviation="1.5"/>
<feColorMatrix type="matrix" values="0 0 0 0 0.0627451 0 0 0 0 0.0941176 0 0 0 0 0.156863 0 0 0 0.1 0"/>
<feBlend mode="normal" in2="effect1_dropShadow_6465_988" result="effect2_dropShadow_6465_988"/>
<feBlend mode="normal" in="SourceGraphic" in2="effect2_dropShadow_6465_988" result="shape"/>
</filter>
<filter id="filter1_dd_6465_988" x="8" y="8" width="22" height="22" filterUnits="userSpaceOnUse" color-interpolation-filters="sRGB">
<feFlood flood-opacity="0" result="BackgroundImageFix"/>
<feColorMatrix in="SourceAlpha" type="matrix" values="0 0 0 0 0 0 0 0 0 0 0 0 0 0 0 0 0 0 127 0" result="hardAlpha"/>
<feOffset dy="1"/>
<feGaussianBlur stdDeviation="1"/>
<feColorMatrix type="matrix" values="0 0 0 0 0.0627451 0 0 0 0 0.0941176 0 0 0 0 0.156863 0 0 0 0.06 0"/>
<feBlend mode="normal" in2="BackgroundImageFix" result="effect1_dropShadow_6465_988"/>
<feColorMatrix in="SourceAlpha" type="matrix" values="0 0 0 0 0 0 0 0 0 0 0 0 0 0 0 0 0 0 127 0" result="hardAlpha"/>
<feOffset dy="1"/>
<feGaussianBlur stdDeviation="1.5"/>
<feColorMatrix type="matrix" values="0 0 0 0 0.0627451 0 0 0 0 0.0941176 0 0 0 0 0.156863 0 0 0 0.1 0"/>
<feBlend mode="normal" in2="effect1_dropShadow_6465_988" result="effect2_dropShadow_6465_988"/>
<feBlend mode="normal" in="SourceGraphic" in2="effect2_dropShadow_6465_988" result="shape"/>
</filter>
<filter id="filter2_b_6465_988" x="-2" y="17" width="42" height="22" filterUnits="userSpaceOnUse" color-interpolation-filters="sRGB">
<feFlood flood-opacity="0" result="BackgroundImageFix"/>
<feGaussianBlur in="BackgroundImageFix" stdDeviation="2.5"/>
<feComposite in2="SourceAlpha" operator="in" result="effect1_backgroundBlur_6465_988"/>
<feBlend mode="normal" in="SourceGraphic" in2="effect1_backgroundBlur_6465_988" result="shape"/>
</filter>
<linearGradient id="paint0_linear_6465_988" x1="19" y1="2" x2="19" y2="34" gradientUnits="userSpaceOnUse">
<stop stop-color="white"/>
<stop offset="1" stop-color="#D0D5DD"/>
</linearGradient>
<linearGradient id="paint1_linear_6465_988" x1="15" y1="26" x2="23" y2="10" gradientUnits="userSpaceOnUse">
<stop stop-color="#EC6D62"/>
<stop offset="1" stop-color="#EE46BC"/>
</linearGradient>
<clipPath id="clip0_6465_988">
<rect x="3" y="2" width="32" height="32" rx="8" fill="white"/>
</clipPath>
</defs>
</svg>
